<svg width="50" height="52" viewBox="0 0 50 52" fill="none" xmlns="http://www.w3.org/2000/svg">
<circle r="24.9755" transform="matrix(-1 0 0 1 25.0245 26.0581)" fill="#2B71D9"/>
<path d="M16.7927 38.3822L15.7783 37.5274C10.0123 32.6684 8.91349 24.0355 13.6036 18.1313C18.1082 12.4603 26.1182 11.3128 31.9955 15.1487L30.5785 16.8302C30.25 17.22 30.4666 17.8192 30.9685 17.9088L40.0845 19.5359C40.5863 19.6254 40.9968 19.1383 40.8235 18.6589L37.6754 9.94989C37.5022 9.47051 36.8748 9.35846 36.5463 9.74832L35.004 11.5786C27.178 6.11735 16.269 7.50556 10.1079 15.0816C3.71029 22.9485 5.08208 34.5752 12.8359 41.1094L13.8057 41.9267C14.0853 42.1623 14.503 42.1267 14.7387 41.847L16.8723 39.3152C17.108 39.0356 17.0723 38.6178 16.7927 38.3822ZM20.3133 44.1302L21.306 40.9073C21.4137 40.5578 21.2176 40.1872 20.8681 40.0795L19.8907 39.7784C19.5411 39.6707 19.1705 39.8668 19.0629 40.2163L18.0702 43.4392C17.9625 43.7887 18.1586 44.1593 18.5081 44.267L19.4856 44.568C19.835 44.6757 20.2056 44.4797 20.3133 44.1302ZM27.1312 44.4108L26.8442 41.0508C26.8131 40.6864 26.4926 40.4162 26.1281 40.4473L25.1091 40.5343C24.7447 40.5654 24.4745 40.886 24.5056 41.2504L24.7925 44.6105C24.8236 44.9748 25.1442 45.245 25.5086 45.2139L26.5277 45.1269C26.8921 45.0958 27.1623 44.7752 27.1312 44.4108ZM33.5577 42.1171L32.033 39.1091C31.8678 38.7829 31.4692 38.6525 31.1431 38.8179L30.2307 39.2803C29.9045 39.4456 29.7742 39.8441 29.9395 40.1703L31.4642 43.1783C31.6295 43.5045 32.0281 43.6349 32.3542 43.4696L33.2666 43.0071C33.5927 42.8418 33.7231 42.4433 33.5577 42.1171ZM38.6571 37.5829L36.1166 35.3651C35.8412 35.1246 35.4228 35.153 35.1823 35.4284L34.5097 36.199C34.2692 36.4744 34.2976 36.8927 34.573 37.1332L37.1134 39.351C37.3889 39.5915 37.8072 39.5632 38.0478 39.2877L38.7204 38.5172C38.9609 38.2417 38.9326 37.8234 38.6571 37.5829ZM41.6866 31.4687L38.5003 30.3639C38.1548 30.2442 37.7776 30.4272 37.6578 30.7727L37.3228 31.7391C37.203 32.0846 37.386 32.4618 37.7315 32.5816L40.9178 33.6863C41.2633 33.806 41.6405 33.623 41.7603 33.2775L42.0953 32.3111C42.2151 31.9657 42.0321 31.5884 41.6866 31.4687ZM42.205 24.6647L38.837 24.8341C38.4718 24.8525 38.1906 25.1635 38.2089 25.5288L38.2602 26.5502C38.2787 26.9155 38.5896 27.1967 38.9549 27.1783L42.3229 27.0089C42.6881 26.9905 42.9694 26.6795 42.951 26.3142L42.8996 25.2927C42.8813 24.9276 42.5703 24.6464 42.205 24.6647Z" fill="#F5F5F5"/>
<path d="M15.9 25.0271C16.2867 24.8738 16.6733 24.6771 17.06 24.4371C17.4533 24.1971 17.8 23.9138 18.1 23.5871H18.95V30.5171H17.74V25.2071C17.56 25.3471 17.3333 25.4838 17.06 25.6171C16.7867 25.7504 16.5233 25.8604 16.27 25.9471L15.9 25.0271ZM24.5136 28.5371C24.5136 28.3171 24.4703 28.1204 24.3836 27.9471C24.2969 27.7738 24.1436 27.6271 23.9236 27.5071C23.7103 27.3871 23.4203 27.2971 23.0536 27.2371C22.6936 27.1771 22.2369 27.1471 21.6836 27.1471C21.7569 26.5071 21.8136 25.9004 21.8536 25.3271C21.8936 24.7471 21.9269 24.1671 21.9536 23.5871H25.4936V24.6071H22.9836C22.9769 24.7204 22.9669 24.8504 22.9536 24.9971C22.9469 25.1371 22.9369 25.2804 22.9236 25.4271C22.9169 25.5738 22.9069 25.7138 22.8936 25.8471C22.8803 25.9804 22.8669 26.0938 22.8536 26.1871C23.8403 26.2404 24.5669 26.4671 25.0336 26.8671C25.5069 27.2604 25.7436 27.8004 25.7436 28.4871C25.7436 28.8004 25.6903 29.0904 25.5836 29.3571C25.4769 29.6238 25.3136 29.8538 25.0936 30.0471C24.8736 30.2404 24.5969 30.3938 24.2636 30.5071C23.9303 30.6138 23.5403 30.6671 23.0936 30.6671C22.9136 30.6671 22.7303 30.6538 22.5436 30.6271C22.3569 30.6004 22.1769 30.5671 22.0036 30.5271C21.8369 30.4938 21.6869 30.4571 21.5536 30.4171C21.4203 30.3771 21.3203 30.3404 21.2536 30.3071L21.4836 29.2871C21.6236 29.3538 21.8236 29.4271 22.0836 29.5071C22.3503 29.5804 22.6736 29.6171 23.0536 29.6171C23.3136 29.6171 23.5369 29.5904 23.7236 29.5371C23.9103 29.4771 24.0603 29.3971 24.1736 29.2971C24.2936 29.1971 24.3803 29.0838 24.4336 28.9571C24.4869 28.8238 24.5136 28.6838 24.5136 28.5371ZM29.1812 27.9071C29.1812 27.5204 29.2412 27.1604 29.3612 26.8271C29.4812 26.4871 29.6512 26.1938 29.8712 25.9471C30.0978 25.7004 30.3712 25.5071 30.6912 25.3671C31.0112 25.2271 31.3712 25.1571 31.7712 25.1571C32.2645 25.1571 32.7312 25.2471 33.1712 25.4271L32.9112 26.4171C32.7712 26.3571 32.6112 26.3071 32.4312 26.2671C32.2578 26.2271 32.0712 26.2071 31.8712 26.2071C31.3978 26.2071 31.0378 26.3571 30.7912 26.6571C30.5445 26.9504 30.4212 27.3671 30.4212 27.9071C30.4212 28.4271 30.5378 28.8404 30.7712 29.1471C31.0045 29.4471 31.3978 29.5971 31.9512 29.5971C32.1578 29.5971 32.3612 29.5771 32.5612 29.5371C32.7612 29.4971 32.9345 29.4471 33.0812 29.3871L33.2512 30.3871C33.1178 30.4538 32.9145 30.5138 32.6412 30.5671C32.3745 30.6204 32.0978 30.6471 31.8112 30.6471C31.3645 30.6471 30.9745 30.5804 30.6412 30.4471C30.3145 30.3071 30.0412 30.1171 29.8212 29.8771C29.6078 29.6304 29.4478 29.3404 29.3412 29.0071C29.2345 28.6671 29.1812 28.3004 29.1812 27.9071Z" fill="#F5F5F5"/>
</svg>
