<svg width="50" height="52" viewBox="0 0 50 52" fill="none" xmlns="http://www.w3.org/2000/svg">
<circle cx="24.9755" cy="26.0581" r="24.9755" fill="#2B71D9"/>
<path d="M33.2073 38.3822L34.2217 37.5274C39.9877 32.6684 41.0865 24.0355 36.3964 18.1313C31.8918 12.4603 23.8818 11.3128 18.0045 15.1487L19.4215 16.8302C19.75 17.22 19.5334 17.8192 19.0315 17.9088L9.91549 19.5359C9.41372 19.6254 9.00318 19.1383 9.17646 18.6589L12.3246 9.94989C12.4978 9.47051 13.1252 9.35846 13.4537 9.74832L14.996 11.5786C22.822 6.11735 33.731 7.50556 39.8921 15.0816C46.2897 22.9485 44.9179 34.5752 37.1641 41.1094L36.1943 41.9267C35.9147 42.1623 35.497 42.1267 35.2613 41.847L33.1277 39.3152C32.892 39.0356 32.9277 38.6178 33.2073 38.3822ZM29.6867 44.1302L28.694 40.9073C28.5863 40.5578 28.7824 40.1872 29.1319 40.0795L30.1093 39.7784C30.4589 39.6707 30.8295 39.8668 30.9371 40.2163L31.9298 43.4392C32.0375 43.7887 31.8414 44.1593 31.4919 44.267L30.5144 44.568C30.165 44.6757 29.7944 44.4797 29.6867 44.1302ZM22.8688 44.4108L23.1558 41.0508C23.1869 40.6864 23.5074 40.4162 23.8719 40.4473L24.8909 40.5343C25.2553 40.5654 25.5255 40.886 25.4944 41.2504L25.2075 44.6105C25.1764 44.9748 24.8558 45.245 24.4914 45.2139L23.4723 45.1269C23.1079 45.0958 22.8377 44.7752 22.8688 44.4108ZM16.4423 42.1171L17.967 39.1091C18.1322 38.7829 18.5308 38.6525 18.8569 38.8179L19.7693 39.2803C20.0955 39.4456 20.2258 39.8441 20.0605 40.1703L18.5358 43.1783C18.3705 43.5045 17.9719 43.6349 17.6458 43.4696L16.7334 43.0071C16.4073 42.8418 16.2769 42.4433 16.4423 42.1171ZM11.3429 37.5829L13.8834 35.3651C14.1588 35.1246 14.5772 35.153 14.8177 35.4284L15.4903 36.199C15.7308 36.4744 15.7024 36.8927 15.427 37.1332L12.8866 39.351C12.6111 39.5915 12.1928 39.5632 11.9522 39.2877L11.2796 38.5172C11.0391 38.2417 11.0674 37.8234 11.3429 37.5829ZM8.31339 31.4687L11.4997 30.3639C11.8452 30.2442 12.2224 30.4272 12.3422 30.7727L12.6772 31.7391C12.797 32.0846 12.614 32.4618 12.2685 32.5816L9.0822 33.6863C8.73666 33.806 8.35948 33.623 8.23971 33.2775L7.90465 32.3111C7.78488 31.9657 7.96785 31.5884 8.31339 31.4687ZM7.79497 24.6647L11.163 24.8341C11.5282 24.8525 11.8094 25.1635 11.7911 25.5288L11.7398 26.5502C11.7213 26.9155 11.4104 27.1967 11.0451 27.1783L7.67706 27.0089C7.31185 26.9905 7.03063 26.6795 7.04901 26.3142L7.10038 25.2927C7.11867 24.9276 7.4297 24.6464 7.79497 24.6647Z" fill="#F5F5F5"/>
<path d="M16.9 25.0271C17.2867 24.8738 17.6733 24.6771 18.06 24.4371C18.4533 24.1971 18.8 23.9138 19.1 23.5871H19.95V30.5171H18.74V25.2071C18.56 25.3471 18.3333 25.4838 18.06 25.6171C17.7867 25.7504 17.5233 25.8604 17.27 25.9471L16.9 25.0271ZM25.5136 28.5371C25.5136 28.3171 25.4703 28.1204 25.3836 27.9471C25.2969 27.7738 25.1436 27.6271 24.9236 27.5071C24.7103 27.3871 24.4203 27.2971 24.0536 27.2371C23.6936 27.1771 23.2369 27.1471 22.6836 27.1471C22.7569 26.5071 22.8136 25.9004 22.8536 25.3271C22.8936 24.7471 22.9269 24.1671 22.9536 23.5871H26.4936V24.6071H23.9836C23.9769 24.7204 23.9669 24.8504 23.9536 24.9971C23.9469 25.1371 23.9369 25.2804 23.9236 25.4271C23.9169 25.5738 23.9069 25.7138 23.8936 25.8471C23.8803 25.9804 23.8669 26.0938 23.8536 26.1871C24.8403 26.2404 25.5669 26.4671 26.0336 26.8671C26.5069 27.2604 26.7436 27.8004 26.7436 28.4871C26.7436 28.8004 26.6903 29.0904 26.5836 29.3571C26.4769 29.6238 26.3136 29.8538 26.0936 30.0471C25.8736 30.2404 25.5969 30.3938 25.2636 30.5071C24.9303 30.6138 24.5403 30.6671 24.0936 30.6671C23.9136 30.6671 23.7303 30.6538 23.5436 30.6271C23.3569 30.6004 23.1769 30.5671 23.0036 30.5271C22.8369 30.4938 22.6869 30.4571 22.5536 30.4171C22.4203 30.3771 22.3203 30.3404 22.2536 30.3071L22.4836 29.2871C22.6236 29.3538 22.8236 29.4271 23.0836 29.5071C23.3503 29.5804 23.6736 29.6171 24.0536 29.6171C24.3136 29.6171 24.5369 29.5904 24.7236 29.5371C24.9103 29.4771 25.0603 29.3971 25.1736 29.2971C25.2936 29.1971 25.3803 29.0838 25.4336 28.9571C25.4869 28.8238 25.5136 28.6838 25.5136 28.5371ZM30.1812 27.9071C30.1812 27.5204 30.2412 27.1604 30.3612 26.8271C30.4812 26.4871 30.6512 26.1938 30.8712 25.9471C31.0978 25.7004 31.3712 25.5071 31.6912 25.3671C32.0112 25.2271 32.3712 25.1571 32.7712 25.1571C33.2645 25.1571 33.7312 25.2471 34.1712 25.4271L33.9112 26.4171C33.7712 26.3571 33.6112 26.3071 33.4312 26.2671C33.2578 26.2271 33.0712 26.2071 32.8712 26.2071C32.3978 26.2071 32.0378 26.3571 31.7912 26.6571C31.5445 26.9504 31.4212 27.3671 31.4212 27.9071C31.4212 28.4271 31.5378 28.8404 31.7712 29.1471C32.0045 29.4471 32.3978 29.5971 32.9512 29.5971C33.1578 29.5971 33.3612 29.5771 33.5612 29.5371C33.7612 29.4971 33.9345 29.4471 34.0812 29.3871L34.2512 30.3871C34.1178 30.4538 33.9145 30.5138 33.6412 30.5671C33.3745 30.6204 33.0978 30.6471 32.8112 30.6471C32.3645 30.6471 31.9745 30.5804 31.6412 30.4471C31.3145 30.3071 31.0412 30.1171 30.8212 29.8771C30.6078 29.6304 30.4478 29.3404 30.3412 29.0071C30.2345 28.6671 30.1812 28.3004 30.1812 27.9071Z" fill="#F5F5F5"/>
</svg>
