<svg width="14" height="14" viewBox="0 0 14 14" fill="none" xmlns="http://www.w3.org/2000/svg">
<path d="M6.99983 7.34805C8.73336 7.34805 10.1388 5.70312 10.1388 3.67401C10.1388 0.860189 8.73342 0 6.99983 0C5.26617 0 3.86084 0.860189 3.86084 3.67401C3.86087 5.70312 5.2662 7.34805 6.99983 7.34805Z" fill="#17213C"/>
<path d="M13.9316 12.7558L12.3479 9.1883C12.2755 9.02505 12.1482 8.88966 11.9898 8.8072L9.53209 7.5278C9.47789 7.49964 9.41227 7.50511 9.36354 7.542C8.66841 8.06776 7.85109 8.34566 7.00004 8.34566C6.14884 8.34566 5.3316 8.06776 4.63646 7.542C4.5876 7.50511 4.52198 7.49964 4.46778 7.5278L2.01021 8.8072C1.85176 8.88966 1.72464 9.02499 1.65214 9.1883L0.0684866 12.7558C-0.0406968 13.0017 -0.0183195 13.2831 0.128365 13.5087C0.27498 13.7342 0.523115 13.8688 0.792155 13.8688H13.2078C13.4769 13.8688 13.7251 13.7342 13.8717 13.5086C14.0183 13.2831 14.0407 13.0016 13.9316 12.7558Z" fill="#17213C"/>
</svg>
