<svg width="16" height="16" viewBox="0 0 16 16" fill="none" xmlns="http://www.w3.org/2000/svg">
<path d="M15.3669 3.56499V2.55717L15.222 2.50022C15.1712 2.48039 13.9869 2.02072 12.4076 2.02072C10.7153 2.02072 9.25799 2.53633 8.0717 3.5533C6.88591 2.53633 5.42808 2.02072 3.73584 2.02072C2.15598 2.02072 0.971716 2.48039 0.922392 2.50022L0.775949 2.55717V3.49075C0.297972 3.58025 0 3.74042 0 4.00178C0 5.36249 0 13.6213 0 13.6213H7.08524C7.33033 13.8405 7.68881 13.9788 8.08949 13.9788C8.49069 13.9788 8.84866 13.8405 9.09375 13.6213H16C16 13.6213 16 4.47925 16 4.00178C15.9995 3.78923 15.758 3.65042 15.3669 3.56499ZM7.99492 12.8626C7.40711 12.6191 5.3813 11.8497 3.35244 11.8497C2.55056 11.8497 1.84021 11.9728 1.23562 12.2159V2.87549C1.58851 2.75752 2.55056 2.47938 3.73533 2.47938C5.29333 2.47938 6.63217 2.95074 7.72542 3.86907V9.44461L7.99492 9.14765V12.8626ZM14.9068 12.2184C14.2574 11.957 13.5115 11.8258 12.6852 11.8258C10.6573 11.8258 8.72764 12.6028 8.14644 12.8581V9.14664L8.41747 9.44461V3.86907C9.5102 2.95023 10.849 2.47938 12.407 2.47938C13.5877 2.47938 14.5534 2.75803 14.9068 2.87549V12.2184Z" fill="#17213C"/>
<path d="M2.14404 4.10398L2.23913 4.46348C4.63155 3.82889 6.78397 5.00349 6.80584 5.01518L6.98635 4.69026C6.89431 4.63891 4.68393 3.43074 2.14404 4.10398Z" fill="#17213C"/>
<path d="M2.14404 5.15654L2.23913 5.51604C4.63155 4.88094 6.78397 6.05554 6.80584 6.06724L6.98635 5.74282C6.89431 5.69096 4.68393 4.48331 2.14404 5.15654Z" fill="#17213C"/>
<path d="M2.14404 6.14555L2.23913 6.50505C4.63155 5.87097 6.78397 7.04507 6.80584 7.05676L6.98635 6.73184C6.89431 6.68048 4.68393 5.47283 2.14404 6.14555Z" fill="#17213C"/>
<path d="M2.14404 7.22964L2.23913 7.58914C4.63155 6.95455 6.78397 8.12916 6.80584 8.14085L6.98635 7.81644C6.89431 7.76406 4.68393 6.5559 2.14404 7.22964Z" fill="#17213C"/>
<path d="M2.14404 8.23389L2.23913 8.59339C4.63155 7.95931 6.78397 9.1334 6.80584 9.14561L6.98635 8.82017C6.89431 8.76933 4.68393 7.56117 2.14404 8.23389Z" fill="#17213C"/>
<path d="M2.14404 9.26561L2.23913 9.62511C4.63155 8.99052 6.78397 10.1646 6.80584 10.1763L6.98635 9.85139C6.89431 9.80003 4.68393 8.59288 2.14404 9.26561Z" fill="#17213C"/>
<path d="M2.14404 10.3004L2.23913 10.6594C4.63155 10.0248 6.78397 11.1994 6.80584 11.2111L6.98635 10.8872C6.89431 10.8348 4.68393 9.62666 2.14404 10.3004Z" fill="#17213C"/>
<path d="M9.44663 5.04266C9.46849 5.03096 11.6204 3.85687 14.0128 4.49095L14.1084 4.13145C11.568 3.45873 9.35815 4.66689 9.26611 4.71825L9.44663 5.04266Z" fill="#17213C"/>
<path d="M9.26611 5.77079L9.44663 6.09521C9.46849 6.08351 11.6204 4.90891 14.0128 5.54401L14.1084 5.184C11.568 4.51077 9.35815 5.71842 9.26611 5.77079Z" fill="#17213C"/>
<path d="M9.26611 6.75929L9.44663 7.08421C9.46849 7.07201 11.6204 5.89791 14.0128 6.532L14.1084 6.1725C11.568 5.50028 9.35815 6.70793 9.26611 6.75929Z" fill="#17213C"/>
<path d="M9.26611 7.84389L9.44663 8.1683C9.46849 8.1566 11.6204 6.98251 14.0128 7.6171L14.1084 7.2576C11.568 6.58335 9.35815 7.79151 9.26611 7.84389Z" fill="#17213C"/>
<path d="M9.26611 8.84815L9.44663 9.17358C9.46849 9.16189 11.6204 7.98729 14.0128 8.62137L14.1084 8.26187C11.568 7.58914 9.35815 8.79629 9.26611 8.84815Z" fill="#17213C"/>
<path d="M9.26611 9.87986L9.44663 10.2043C9.46849 10.1926 11.6204 9.01849 14.0128 9.65308L14.1084 9.29358C11.568 8.62034 9.35815 9.828 9.26611 9.87986Z" fill="#17213C"/>
<path d="M9.26611 10.9141L9.44663 11.238C9.46849 11.2274 11.6204 10.0517 14.0128 10.6868L14.1084 10.3273C11.568 9.6541 9.35815 10.8628 9.26611 10.9141Z" fill="#17213C"/>
</svg>
