<svg width="28" height="28" viewBox="0 0 28 28" fill="none" xmlns="http://www.w3.org/2000/svg">
<path d="M7.6512 27.5198C8.95514 27.5198 8.98414 23.3424 8.36216 19.0476C7.74004 14.7528 6.73307 13.1823 5.96275 13.1823C5.19297 13.1823 4.68897 14.0114 4.68897 14.0114C4.12581 18.3957 6.31041 26.1716 6.31041 26.1716C6.67637 27.6161 7.6512 27.5198 7.6512 27.5198Z" fill="#17213C"/>
<path d="M22.0103 26.3401C22.0103 26.3401 23.9061 18.4884 23.1815 14.1282C23.1815 14.1282 22.6475 13.3179 21.8775 13.3464C21.1079 13.3746 20.1588 14.9814 19.6964 19.2968C19.2344 23.6113 19.4183 27.7845 20.7208 27.7358C20.7202 27.7358 21.6983 27.7966 22.0103 26.3401Z" fill="#17213C"/>
<path d="M0.442846 16.3913C0.450488 17.4731 0.668846 19.0504 1.60867 20.7069C1.60867 20.7069 1.8995 23.3723 2.56863 24.2908C2.94741 24.8104 3.54612 25.197 3.99444 25.4344C4.16155 25.6983 6.1104 27.3119 6.1104 27.3119C6.1104 27.3119 4.92608 23.8169 4.42194 20.3512C3.91856 16.8865 4.09639 14.1008 4.09639 14.1008L2.88143 15.3743C2.88143 15.3743 2.71636 15.5818 2.62629 16.3989L2.40711 16.589C2.40711 16.589 2.22929 16.3341 1.92352 16.0595C1.62764 15.7937 1.44101 15.2966 1.56405 14.8714C1.68626 14.4462 1.6402 13.7827 1.46053 13.3902C1.28059 12.9975 1.14821 12.0295 1.32556 11.2543C1.70059 9.61135 2.8138 6.79439 6.11088 4.13343C6.11088 4.13343 7.00232 3.83141 10.9541 2.80076C16.0643 1.46775 19.8617 4.02104 19.8617 4.02104C19.8617 4.02104 21.3373 4.53418 21.6335 4.3262C21.6335 4.3262 25.389 6.75611 26.5761 11.3257C26.7764 12.0954 26.6675 13.0633 26.4468 13.4639C26.2262 13.8647 26.1533 14.5086 26.2841 14.9007C26.4145 15.2936 26.3119 15.7937 26.1006 16.0595C25.9707 16.223 25.8474 16.412 25.7954 16.589L25.4178 16.3743C25.4178 16.3743 25.2624 15.6191 25.129 15.441C24.9956 15.2633 23.9961 14.5974 23.9961 14.5974C23.9961 14.5974 24.5376 18.1893 22.6411 26.6902C22.6411 26.6902 24.9226 25.5649 25.781 24.202C26.6404 22.8393 26.5516 20.8546 26.5516 20.8546C26.5516 20.8546 27.7055 18.5743 27.6172 16.9149C27.5937 16.4758 27.5663 16.1175 27.5388 15.8288C27.4805 15.23 27.5399 14.4473 27.7364 14.071C27.9314 13.695 28.0864 12.7426 27.9456 11.9597C27.588 9.97785 26.359 6.28746 22.1519 3.15546C22.1519 3.15546 19.6189 -0.0580225 13.5174 0.000797751C7.41488 0.0595497 5.75679 3.11104 5.75679 3.11104C5.75679 3.11104 1.08584 5.77917 0.0557377 11.9161C-0.0754818 12.7002 0.0420904 13.7068 0.230765 14.1528C0.419304 14.5988 0.438137 15.5961 0.442846 16.3913Z" fill="#17213C"/>
</svg>
