<svg width="144" height="60" viewBox="0 0 144 60" fill="none" xmlns="http://www.w3.org/2000/svg">
<path d="M16.3951 58.971C19.1892 58.971 19.2514 50.0196 17.9186 40.8164C16.5855 31.6132 14.4277 28.2479 12.777 28.2479C11.1274 28.2479 10.0474 30.0245 10.0474 30.0245C8.84067 39.4194 13.522 56.0821 13.522 56.0821C14.3062 59.1773 16.3951 58.971 16.3951 58.971Z" fill="#17213C"/>
<path d="M47.1647 56.4431C47.1647 56.4431 51.2272 39.6181 49.6745 30.2746C49.6745 30.2746 48.5302 28.5382 46.8801 28.5994C45.2311 28.6597 43.1972 32.103 42.2064 41.3502C41.2164 50.5957 41.6104 59.5382 44.4014 59.4339C44.4001 59.4339 46.4962 59.564 47.1647 56.4431Z" fill="#17213C"/>
<path d="M0.948955 35.1242C0.965332 37.4424 1.43324 40.8222 3.44716 44.372C3.44716 44.372 4.07035 50.0836 5.50421 52.0517C6.31588 53.1651 7.59883 53.9936 8.55951 54.5023C8.91761 55.0677 13.0937 58.5256 13.0937 58.5256C13.0937 58.5256 10.5559 51.0362 9.47559 43.6096C8.39691 36.1853 8.77797 30.216 8.77797 30.216L6.17449 32.9449C6.17449 32.9449 5.82078 33.3896 5.62776 35.1406L5.1581 35.5478C5.1581 35.5478 4.77704 35.0017 4.12182 34.4133C3.48781 33.8436 3.08789 32.7784 3.35153 31.8673C3.61341 30.9562 3.51471 29.5344 3.12971 28.6934C2.74412 27.8519 2.46045 25.7776 2.84048 24.1163C3.64412 20.5958 6.02958 14.5594 13.0947 8.85735C13.0947 8.85735 15.005 8.21017 23.473 6.00163C34.4234 3.14519 42.5608 8.61652 42.5608 8.61652C42.5608 8.61652 45.7227 9.71611 46.3574 9.27042C46.3574 9.27042 54.4051 14.4774 56.9489 24.2693C57.3779 25.9188 57.1447 27.9928 56.6716 28.8513C56.1989 29.7101 56.0429 31.0898 56.323 31.93C56.6025 32.7721 56.3827 33.8437 55.9299 34.4133C55.6516 34.7636 55.3872 35.1687 55.2758 35.5478L54.4666 35.0878C54.4666 35.0878 54.1338 33.4694 53.8479 33.0879C53.5619 32.7072 51.4202 31.2802 51.4202 31.2802C51.4202 31.2802 52.5805 38.977 48.5167 57.1932C48.5167 57.1932 53.4056 54.7818 55.245 51.8614C57.0866 48.9414 56.8962 44.6884 56.8962 44.6884C56.8962 44.6884 59.369 39.802 59.1796 36.2463C59.1293 35.3052 59.0707 34.5376 59.0116 33.9189C58.8868 32.6357 59.014 30.9585 59.4352 30.1522C59.853 29.3464 60.1852 27.3056 59.8834 25.628C59.1171 21.3811 56.4836 13.4731 47.4684 6.76169C47.4684 6.76169 42.0405 -0.124334 28.966 0.00170947C15.889 0.127607 12.336 6.6665 12.336 6.6665C12.336 6.6665 2.3268 12.3839 0.119438 25.5344C-0.161747 27.2148 0.0901936 29.3717 0.494497 30.3274C0.898508 31.2831 0.938866 33.4203 0.948955 35.1242Z" fill="#17213C"/>
<path d="M101.976 25.144C101.368 25.144 100.76 25.1227 100.152 25.08C99.5547 25.048 98.9307 24.9627 98.28 24.824V14.072C98.792 13.976 99.352 13.9067 99.96 13.864C100.568 13.8107 101.133 13.784 101.656 13.784C102.36 13.784 103.005 13.8373 103.592 13.944C104.189 14.04 104.701 14.2107 105.128 14.456C105.555 14.7013 105.885 15.0267 106.12 15.432C106.365 15.8267 106.488 16.3173 106.488 16.904C106.488 17.7893 106.061 18.488 105.208 19C105.912 19.2667 106.392 19.6293 106.648 20.088C106.904 20.5467 107.032 21.064 107.032 21.64C107.032 22.8027 106.605 23.6773 105.752 24.264C104.909 24.8507 103.651 25.144 101.976 25.144ZM100.712 20.168V23.032C100.893 23.0533 101.091 23.0693 101.304 23.08C101.517 23.0907 101.752 23.096 102.008 23.096C102.755 23.096 103.357 22.9893 103.816 22.776C104.275 22.5627 104.504 22.168 104.504 21.592C104.504 21.08 104.312 20.7173 103.928 20.504C103.544 20.28 102.995 20.168 102.28 20.168H100.712ZM100.712 18.264H101.928C102.696 18.264 103.245 18.168 103.576 17.976C103.907 17.7733 104.072 17.4533 104.072 17.016C104.072 16.568 103.901 16.2533 103.56 16.072C103.219 15.8907 102.717 15.8 102.056 15.8C101.843 15.8 101.613 15.8053 101.368 15.816C101.123 15.816 100.904 15.8267 100.712 15.848V18.264ZM111.126 19.448C111.126 19.992 111.19 20.4827 111.318 20.92C111.457 21.3573 111.649 21.736 111.894 22.056C112.15 22.3653 112.459 22.6053 112.822 22.776C113.185 22.9467 113.601 23.032 114.07 23.032C114.529 23.032 114.939 22.9467 115.302 22.776C115.675 22.6053 115.985 22.3653 116.23 22.056C116.486 21.736 116.678 21.3573 116.806 20.92C116.945 20.4827 117.014 19.992 117.014 19.448C117.014 18.904 116.945 18.4133 116.806 17.976C116.678 17.528 116.486 17.1493 116.23 16.84C115.985 16.52 115.675 16.2747 115.302 16.104C114.939 15.9333 114.529 15.848 114.07 15.848C113.601 15.848 113.185 15.9387 112.822 16.12C112.459 16.2907 112.15 16.536 111.894 16.856C111.649 17.1653 111.457 17.544 111.318 17.992C111.19 18.4293 111.126 18.9147 111.126 19.448ZM119.59 19.448C119.59 20.3973 119.446 21.2347 119.158 21.96C118.881 22.6747 118.497 23.2773 118.006 23.768C117.515 24.248 116.929 24.6107 116.246 24.856C115.574 25.1013 114.849 25.224 114.07 25.224C113.313 25.224 112.598 25.1013 111.926 24.856C111.254 24.6107 110.667 24.248 110.166 23.768C109.665 23.2773 109.27 22.6747 108.982 21.96C108.694 21.2347 108.55 20.3973 108.55 19.448C108.55 18.4987 108.699 17.6667 108.998 16.952C109.297 16.2267 109.697 15.6187 110.198 15.128C110.71 14.6373 111.297 14.2693 111.958 14.024C112.63 13.7787 113.334 13.656 114.07 13.656C114.827 13.656 115.542 13.7787 116.214 14.024C116.886 14.2693 117.473 14.6373 117.974 15.128C118.475 15.6187 118.87 16.2267 119.158 16.952C119.446 17.6667 119.59 18.4987 119.59 19.448ZM123.767 19.448C123.767 19.992 123.831 20.4827 123.959 20.92C124.097 21.3573 124.289 21.736 124.535 22.056C124.791 22.3653 125.1 22.6053 125.463 22.776C125.825 22.9467 126.241 23.032 126.711 23.032C127.169 23.032 127.58 22.9467 127.943 22.776C128.316 22.6053 128.625 22.3653 128.871 22.056C129.127 21.736 129.319 21.3573 129.447 20.92C129.585 20.4827 129.655 19.992 129.655 19.448C129.655 18.904 129.585 18.4133 129.447 17.976C129.319 17.528 129.127 17.1493 128.871 16.84C128.625 16.52 128.316 16.2747 127.943 16.104C127.58 15.9333 127.169 15.848 126.711 15.848C126.241 15.848 125.825 15.9387 125.463 16.12C125.1 16.2907 124.791 16.536 124.535 16.856C124.289 17.1653 124.097 17.544 123.959 17.992C123.831 18.4293 123.767 18.9147 123.767 19.448ZM132.231 19.448C132.231 20.3973 132.087 21.2347 131.799 21.96C131.521 22.6747 131.137 23.2773 130.647 23.768C130.156 24.248 129.569 24.6107 128.887 24.856C128.215 25.1013 127.489 25.224 126.711 25.224C125.953 25.224 125.239 25.1013 124.567 24.856C123.895 24.6107 123.308 24.248 122.807 23.768C122.305 23.2773 121.911 22.6747 121.623 21.96C121.335 21.2347 121.191 20.3973 121.191 19.448C121.191 18.4987 121.34 17.6667 121.639 16.952C121.937 16.2267 122.337 15.6187 122.839 15.128C123.351 14.6373 123.937 14.2693 124.599 14.024C125.271 13.7787 125.975 13.656 126.711 13.656C127.468 13.656 128.183 13.7787 128.855 14.024C129.527 14.2693 130.113 14.6373 130.615 15.128C131.116 15.6187 131.511 16.2267 131.799 16.952C132.087 17.6667 132.231 18.4987 132.231 19.448ZM140.855 25C140.631 24.6373 140.365 24.248 140.055 23.832C139.757 23.4053 139.426 22.984 139.063 22.568C138.711 22.1413 138.343 21.736 137.959 21.352C137.575 20.9573 137.191 20.6107 136.807 20.312V25H134.311V13.912H136.807V18.104C137.458 17.4213 138.109 16.712 138.759 15.976C139.421 15.2293 140.034 14.5413 140.599 13.912H143.559C142.802 14.808 142.039 15.672 141.271 16.504C140.514 17.336 139.714 18.1733 138.871 19.016C139.757 19.752 140.61 20.6267 141.431 21.64C142.263 22.6533 143.058 23.7733 143.815 25H140.855Z" fill="#2B71D9"/>
<path d="M104.968 34.912H107.464V46H104.968V41.296H100.776V46H98.28V34.912H100.776V39.152H104.968V34.912ZM114.366 46.224C113.587 46.224 112.915 46.1173 112.35 45.904C111.785 45.68 111.315 45.376 110.942 44.992C110.579 44.5973 110.307 44.1333 110.126 43.6C109.955 43.056 109.87 42.4587 109.87 41.808V34.912H112.366V41.6C112.366 42.048 112.414 42.432 112.51 42.752C112.617 43.0613 112.755 43.3173 112.926 43.52C113.107 43.712 113.321 43.8507 113.566 43.936C113.822 44.0213 114.099 44.064 114.398 44.064C115.006 44.064 115.497 43.8773 115.87 43.504C116.254 43.1307 116.446 42.496 116.446 41.6V34.912H118.942V41.808C118.942 42.4587 118.851 43.056 118.67 43.6C118.489 44.144 118.211 44.6133 117.838 45.008C117.465 45.392 116.99 45.6907 116.414 45.904C115.838 46.1173 115.155 46.224 114.366 46.224ZM125.039 46.144C124.431 46.144 123.823 46.1227 123.215 46.08C122.617 46.048 121.993 45.9627 121.343 45.824V35.072C121.855 34.976 122.415 34.9067 123.023 34.864C123.631 34.8107 124.196 34.784 124.719 34.784C125.423 34.784 126.068 34.8373 126.655 34.944C127.252 35.04 127.764 35.2107 128.191 35.456C128.617 35.7013 128.948 36.0267 129.183 36.432C129.428 36.8267 129.551 37.3173 129.551 37.904C129.551 38.7893 129.124 39.488 128.271 40C128.975 40.2667 129.455 40.6293 129.711 41.088C129.967 41.5467 130.095 42.064 130.095 42.64C130.095 43.8027 129.668 44.6773 128.815 45.264C127.972 45.8507 126.713 46.144 125.039 46.144ZM123.775 41.168V44.032C123.956 44.0533 124.153 44.0693 124.367 44.08C124.58 44.0907 124.815 44.096 125.071 44.096C125.817 44.096 126.42 43.9893 126.879 43.776C127.337 43.5627 127.567 43.168 127.567 42.592C127.567 42.08 127.375 41.7173 126.991 41.504C126.607 41.28 126.057 41.168 125.343 41.168H123.775ZM123.775 39.264H124.991C125.759 39.264 126.308 39.168 126.639 38.976C126.969 38.7733 127.135 38.4533 127.135 38.016C127.135 37.568 126.964 37.2533 126.623 37.072C126.281 36.8907 125.78 36.8 125.119 36.8C124.905 36.8 124.676 36.8053 124.431 36.816C124.185 36.816 123.967 36.8267 123.775 36.848V39.264Z" fill="#17213C"/>
</svg>
