<svg width="20" height="20" viewBox="0 0 20 20" fill="none" xmlns="http://www.w3.org/2000/svg">
<g clip-path="url(#clip0)">
<path d="M19.5079 8.81243L11.1886 0.493093C10.5325 -0.163062 9.46827 -0.163062 8.81211 0.493093C8.15596 1.14925 8.15596 2.21343 8.81211 2.86958L15.9424 9.99984L8.81211 17.1301C8.15596 17.7862 8.15596 18.8504 8.81211 19.5066C9.46827 20.1627 10.5325 20.1627 11.1886 19.5066L19.5079 11.1873C20.1641 10.5327 20.1641 9.46858 19.5079 8.81243ZM9.5049 8.30865L2.90007 1.34744C2.2364 0.648839 1.16143 0.648839 0.497755 1.34744C-0.165918 2.04605 -0.165918 3.17934 0.497755 3.8788L5.90187 9.57433L0.497755 15.2699C-0.165918 15.9685 -0.165918 17.1026 0.497755 17.8012C1.16143 18.4999 2.2364 18.4999 2.90007 17.8012L9.5049 10.84C10.1686 10.1414 10.1686 9.00811 9.5049 8.30865Z" fill="#2B71D9"/>
</g>
<defs>
<clipPath id="clip0">
<rect width="20" height="20" fill="white"/>
</clipPath>
</defs>
</svg>
