<svg width="50" height="50" viewBox="0 0 50 50" fill="none" xmlns="http://www.w3.org/2000/svg">
<circle cx="25" cy="25" r="25" fill="#2B71D9"/>
<path d="M32.4264 15C31.0051 15 29.8528 16.2473 29.8528 17.7858V24.1784C29.7422 24.0423 29.6133 23.9226 29.4647 23.8293L17.3287 16.2448C16.8482 15.9444 16.2567 15.9444 15.7762 16.2448C15.2961 16.5448 15 17.0998 15 17.7001V32.8683C15 33.4691 15.2961 34.0236 15.7762 34.324C16.0165 34.4736 16.2851 34.5488 16.5525 34.5488C16.8207 34.5488 17.0885 34.4736 17.3287 34.324L29.4647 26.7395C29.6133 26.6458 29.7422 26.5261 29.8528 26.39V32.2142C29.8528 33.7527 31.0051 35 32.4264 35C33.8477 35 35 33.7527 35 32.2142V17.7858C35 16.2473 33.8477 15 32.4264 15Z" fill="#F5F5F5"/>
</svg>
