<svg width="80" height="80" viewBox="0 0 80 80" fill="none" xmlns="http://www.w3.org/2000/svg">
<path d="M40 0C17.907 0 0 17.907 0 40C0 62.0928 17.907 80 40 80C62.0928 80 80 62.0928 80 40C80 17.907 62.0928 0 40 0ZM59.1401 43.2114L35.2805 59.6256C34.6167 60.0802 33.8441 60.3127 33.0695 60.3127C32.4459 60.3127 31.827 60.1646 31.2569 59.8667C29.9758 59.189 29.1712 57.8606 29.1712 56.4146V23.5858C29.1712 22.1399 29.9758 20.8112 31.2569 20.1335C32.5381 19.4615 34.0859 19.5541 35.2805 20.3746L59.1401 36.7886C60.1959 37.5154 60.8286 38.7179 60.8286 40C60.8286 41.2821 60.1961 42.4846 59.1401 43.2114Z" fill="#2B71D9"/>
</svg>
