<svg width="50" height="50" viewBox="0 0 50 50" fill="none" xmlns="http://www.w3.org/2000/svg">
<circle r="25" transform="matrix(-1 0 0 1 25 25)" fill="#2B71D9"/>
<path d="M17.5736 15C18.9949 15 20.1472 16.2473 20.1472 17.7858V24.1784C20.2578 24.0423 20.3867 23.9226 20.5353 23.8293L32.6713 16.2448C33.1518 15.9444 33.7433 15.9444 34.2238 16.2448C34.7039 16.5448 35 17.0998 35 17.7001V32.8683C35 33.4691 34.7039 34.0236 34.2238 34.324C33.9835 34.4736 33.7149 34.5488 33.4475 34.5488C33.1793 34.5488 32.9115 34.4736 32.6713 34.324L20.5353 26.7395C20.3867 26.6458 20.2578 26.5261 20.1472 26.39V32.2142C20.1472 33.7527 18.9949 35 17.5736 35C16.1523 35 15 33.7527 15 32.2142V17.7858C15 16.2473 16.1523 15 17.5736 15Z" fill="#F5F5F5"/>
</svg>
