<svg width="10" height="14" viewBox="0 0 10 14" fill="none" xmlns="http://www.w3.org/2000/svg">
<path d="M4.84611 9.69207C5.58659 9.69207 6.22028 9.42845 6.7475 8.90143C7.27464 8.37442 7.53823 7.74041 7.53823 6.99999V2.69238C7.53823 1.95196 7.27484 1.31821 6.7475 0.790932C6.22028 0.263772 5.58659 0 4.84611 0C4.10571 0 3.47193 0.263772 2.94468 0.790932C2.4174 1.31812 2.15381 1.95196 2.15381 2.69238V6.99999C2.15381 7.74038 2.41752 8.37442 2.94468 8.90143C3.47185 9.42845 4.10571 9.69207 4.84611 9.69207Z" fill="#17213C"/>
<path d="M9.53232 5.54448C9.42606 5.43789 9.29958 5.38458 9.15374 5.38458C9.00805 5.38458 8.88187 5.43789 8.77516 5.54448C8.66869 5.65104 8.61541 5.77722 8.61541 5.923V6.99998C8.61541 8.03768 8.24653 8.92524 7.50893 9.66281C6.77158 10.4004 5.8839 10.7692 4.84617 10.7692C3.80847 10.7692 2.92088 10.4004 2.18326 9.66281C1.44572 8.92545 1.07698 8.03771 1.07698 6.99998V5.923C1.07698 5.77722 1.02367 5.65104 0.917145 5.54448C0.810558 5.43789 0.684492 5.38458 0.538565 5.38458C0.392637 5.38458 0.266424 5.43789 0.159896 5.54448C0.053279 5.65104 0 5.77722 0 5.923V6.99998C0 8.23957 0.413736 9.31794 1.24097 10.2349C2.06824 11.1519 3.09047 11.6777 4.30769 11.8122V12.9229H2.15388C2.00804 12.9229 1.88185 12.9763 1.7753 13.0829C1.66871 13.1894 1.6154 13.3156 1.6154 13.4615C1.6154 13.6071 1.66871 13.7335 1.7753 13.84C1.88185 13.9465 2.00804 14 2.15388 14H7.53831C7.68412 14 7.81048 13.9466 7.91689 13.84C8.0236 13.7336 8.07694 13.6071 8.07694 13.4615C8.07694 13.3157 8.0236 13.1894 7.91689 13.0829C7.81051 12.9763 7.68415 12.9229 7.53831 12.9229H5.38476V11.8122C6.60178 11.6777 7.62392 11.1519 8.45127 10.2349C9.27863 9.31794 9.69248 8.23957 9.69248 6.99998V5.923C9.69248 5.77725 9.63906 5.65115 9.53232 5.54448Z" fill="#17213C"/>
</svg>
