<svg width="18" height="18" viewBox="0 0 18 18" fill="none" xmlns="http://www.w3.org/2000/svg">
<g clip-path="url(#clip0)">
<path d="M5.97898 2.05969C8.72491 -0.686237 13.1941 -0.686237 15.94 2.05969C18.6854 4.80621 18.6854 9.27481 15.94 12.0213C13.4947 14.466 9.68625 14.728 6.94211 12.819C6.88437 13.0922 6.75222 13.3529 6.53972 13.5654L2.54078 17.5644C1.95802 18.1459 1.01632 18.1459 0.436541 17.5644C-0.145622 16.9822 -0.145622 16.0405 0.436541 15.4601L4.43548 11.46C4.6468 11.2493 4.90812 11.1165 5.18134 11.0588C3.27116 8.31406 3.53307 4.5062 5.97898 2.05969ZM7.24153 10.7588C9.29159 12.8089 12.628 12.8089 14.6775 10.7588C16.7264 8.70872 16.7264 5.37289 14.6775 3.32282C12.628 1.27335 9.29159 1.27335 7.24153 3.32282C5.19146 5.37289 5.19146 8.70872 7.24153 10.7588Z" fill="#666666"/>
</g>
<defs>
<clipPath id="clip0">
<rect width="18" height="18" fill="white" transform="matrix(-1 0 0 1 18 0)"/>
</clipPath>
</defs>
</svg>
