<svg width="32" height="32" viewBox="0 0 32 32" fill="none" xmlns="http://www.w3.org/2000/svg">
<path d="M16 32C24.8366 32 32 24.8366 32 16C32 7.16344 24.8366 0 16 0C7.16344 0 0 7.16344 0 16C0 24.8366 7.16344 32 16 32Z" fill="#59AAE7"/>
<path d="M16.0001 0C15.2928 0 14.5963 0.0465 13.9131 0.135438C21.7636 1.15813 27.8261 7.87081 27.8261 16C27.8261 24.1292 21.7635 30.8419 13.9131 31.8646C14.5963 31.9535 15.2928 32 16.0001 32C24.8366 32 32.0001 24.8365 32.0001 16C32.0001 7.1635 24.8366 0 16.0001 0Z" fill="#3D9AE3"/>
<path d="M10.2929 19.4462L5.13277 16.8661C4.99134 16.7954 4.98996 16.5941 5.1304 16.5214L24.7342 6.38145C24.8782 6.30695 25.0444 6.43213 25.0127 6.59113L21.6374 23.4672C21.6134 23.5876 21.4846 23.6554 21.3716 23.607L16.7846 21.6412C16.7296 21.6176 16.6668 21.6208 16.6145 21.6499L10.6871 24.9429C10.5582 25.0144 10.3998 24.9213 10.3998 24.7738V19.6192C10.3998 19.5459 10.3585 19.4789 10.2929 19.4462Z" fill="#FCFCFC"/>
<path d="M12.5194 21.1854L12.4873 16.0337C12.4871 16.0007 12.5042 15.97 12.5323 15.9528L20.901 10.8405C20.9959 10.7825 21.0951 10.9082 21.0168 10.987L14.648 17.401C14.641 17.4082 14.6351 17.4163 14.6306 17.4252L13.5412 19.6038L12.6969 21.2281C12.6516 21.3153 12.52 21.2836 12.5194 21.1854Z" fill="#D8D7DA"/>
</svg>
