<svg width="28" height="29" viewBox="0 0 28 29" fill="none" xmlns="http://www.w3.org/2000/svg">
<path d="M2.97513 8.69707C4.56216 6.30262 7.03737 4.53685 9.93299 3.845C10.1561 3.79215 10.3399 3.63604 10.4259 3.42648C10.5126 3.21632 10.4917 2.97821 10.37 2.78566C9.44311 1.32542 7.80322 0.352936 5.92976 0.352936C3.03352 0.352936 0.684326 2.67328 0.684326 5.53545C0.684326 6.75029 1.10905 7.86612 1.81836 8.7487C1.96034 8.92668 2.18039 9.02508 2.40965 9.01475C2.63892 9.00443 2.84974 8.88598 2.97513 8.69707Z" fill="#2B71D9"/>
<path d="M21.9096 0.352936C20.0447 0.352936 18.4104 1.3163 17.4816 2.76682C17.3587 2.95877 17.3372 3.1987 17.4239 3.41008C17.5111 3.62207 17.6955 3.77757 17.9211 3.82981C20.8247 4.50526 23.3085 6.25889 24.9091 8.64544C25.0363 8.83496 25.2484 8.95219 25.4789 8.96008C25.7094 8.96859 25.9282 8.86654 26.0695 8.68614C26.7487 7.81388 27.155 6.72295 27.155 5.53606C27.1532 2.67328 24.8058 0.352936 21.9096 0.352936Z" fill="#2B71D9"/>
<path d="M25.5149 16.2261C25.5149 14.2252 24.9882 12.3446 24.0699 10.7083C22.3679 7.67722 19.3113 5.4984 15.7137 4.95294C15.1402 4.86608 14.5582 4.80716 13.9601 4.80716C13.3356 4.80716 12.7271 4.87033 12.1291 4.96509C8.54687 5.53303 5.50558 7.72096 3.82143 10.7556C2.91974 12.3811 2.40527 14.2447 2.40527 16.2261C2.40527 19.6191 3.91916 22.6629 6.30401 24.7549L5.3304 26.11C4.91121 26.6937 5.05012 27.5016 5.6408 27.9171C5.87129 28.0787 6.13621 28.157 6.39867 28.157C6.80925 28.157 7.21369 27.9669 7.46877 27.6115L8.44177 26.257C10.0823 27.142 11.9625 27.6462 13.9601 27.6462C15.9571 27.6462 17.8373 27.142 19.4778 26.257L20.4508 27.6115C20.7065 27.9675 21.1104 28.157 21.5209 28.157C21.7834 28.157 22.0477 28.0787 22.2782 27.9171C22.8689 27.5016 23.0084 26.6937 22.5892 26.11L21.6156 24.7549C24.0004 22.6629 25.5149 19.6191 25.5149 16.2261ZM13.9607 24.4517C9.37051 24.4517 5.63711 20.7623 5.63711 16.2261C5.63711 14.812 6.00037 13.4811 6.63838 12.3173C7.85293 10.1039 10.0681 8.50939 12.6779 8.10788C13.0971 8.0435 13.5231 7.99976 13.9607 7.99976C14.3725 7.99976 14.7751 8.03924 15.1716 8.09695C17.8035 8.47841 20.0427 10.0729 21.2714 12.296C21.9168 13.4641 22.2837 14.8023 22.2837 16.2255C22.2837 20.7623 18.5503 24.4517 13.9607 24.4517Z" fill="#2B71D9"/>
<path d="M18.6237 18.1504L15.4484 16.2127C15.3827 15.8458 15.1817 15.5294 14.8995 15.3052L15.0446 11.3679C15.0624 10.865 14.6654 10.4428 14.157 10.424C13.65 10.4009 13.2209 10.7982 13.2019 11.3011L13.0562 15.2427C12.6622 15.5172 12.4028 15.9691 12.4028 16.4824C12.4028 17.3213 13.0906 18.0003 13.9395 18.0003C14.181 18.0003 14.4066 17.9402 14.6094 17.8424L17.655 19.7023C17.8062 19.7935 17.974 19.8378 18.1388 19.8378C18.4479 19.8378 18.7491 19.6847 18.9243 19.4059C19.1923 18.9765 19.0571 18.4152 18.6237 18.1504Z" fill="#2B71D9"/>
</svg>
