<svg width="25" height="23" viewBox="0 0 25 23" fill="none" xmlns="http://www.w3.org/2000/svg">
<path d="M2.27717 16.2155H3.8483L12.9941 22.0356C14.0552 22.7103 14.9154 22.2384 14.9154 20.9807V15.02C16.3698 14.2595 17.3634 12.7388 17.3634 10.9846C17.3634 9.23023 16.3698 7.7096 14.9154 6.94885V1.38966C14.9154 0.132291 14.041 -0.362619 12.963 0.283976L3.8483 5.7528H2.27717C1.01919 5.7528 0 6.77217 0 8.02997V13.9384C0 15.1961 1.01919 16.2155 2.27717 16.2155Z" fill="#2B71D9"/>
<path d="M18.8782 11.8044C18.808 12.7651 18.5313 13.6732 18.0563 14.5037C17.7441 15.0494 17.9335 15.745 18.4789 16.0572C18.6577 16.1591 18.8516 16.2076 19.0437 16.2076C19.4387 16.2076 19.822 16.002 20.0329 15.6342C20.6778 14.5058 21.0541 13.273 21.1483 11.9698C21.2955 9.96023 20.7329 7.95173 19.5632 6.31429C19.1976 5.80237 18.4864 5.68453 17.9749 6.04965C17.4631 6.41547 17.3447 7.12596 17.7104 7.63788C18.5714 8.84337 18.9868 10.3231 18.8782 11.8044Z" fill="#2B71D9"/>
<path d="M24.9688 12.2426C25.2557 8.3142 23.5509 4.54732 20.4082 2.16588C19.9065 1.78512 19.1932 1.88502 18.8134 2.38542C18.4331 2.88686 18.5314 3.60088 19.0331 3.98026C21.5584 5.89402 22.9287 8.92086 22.6979 12.0758C22.5244 14.4495 21.4632 16.6417 19.71 18.2486C19.2465 18.6737 19.2154 19.3943 19.6406 19.8572C19.8647 20.1024 20.1721 20.2264 20.4799 20.2264C20.7542 20.2264 21.0304 20.1273 21.2489 19.9271C23.4318 17.9265 24.7527 15.1979 24.9688 12.2426Z" fill="#2B71D9"/>
</svg>
