<svg width="32" height="32" viewBox="0 0 32 32" fill="none" xmlns="http://www.w3.org/2000/svg">
<g clip-path="url(#clip0)">
<path d="M16 32.0001C24.8366 32.0001 32.0001 24.8366 32.0001 16C32.0001 7.16346 24.8366 0 16 0C7.16346 0 0 7.16346 0 16C0 24.8366 7.16346 32.0001 16 32.0001Z" fill="#D42428"/>
<path d="M27.313 4.68457C33.5614 10.9335 33.5619 21.0645 27.313 27.3135C21.0646 33.5619 10.933 33.5622 4.68408 27.3135L27.313 4.68457Z" fill="#CC202D"/>
<path d="M31.6783 19.2045L23.7594 11.2859L14.4199 12.3493L8.77051 21.0953L19.3268 31.6513C25.5333 30.3384 30.4126 25.429 31.6783 19.2045Z" fill="#BA202E"/>
<path d="M24.3731 12.9126C24.3731 11.5713 23.2865 10.4841 21.946 10.4841H10.5585C9.21824 10.4841 8.13184 11.5715 8.13184 12.9126V19.4245C8.13184 20.7658 9.21844 21.8529 10.5585 21.8529H21.9458C23.2866 21.8529 24.3729 20.7655 24.3729 19.4245V12.9126H24.3731ZM14.6278 18.9157V12.7994L19.2661 15.8577L14.6278 18.9157Z" fill="white"/>
</g>
<defs>
<clipPath id="clip0">
<rect width="32" height="32" fill="white"/>
</clipPath>
</defs>
</svg>
